# xmcd CD database file
#
# Track frame offsets:
#	150
#	4907
#	26207
#	46475
#	65572
#	84310
#
# Disc length: 1394 seconds
#
# Revision: 4
# Processed by: cddbd v1.5PL3 Copyright (c) Steve Scherf et al.
# Submitted via: CDex 1.50beta10
#
DISCID=48057006
DTITLE=姫神 - 時をみつめて
DYEAR=1993
DGENRE=New Age
TTITLE0=前奏曲-時をみつめて-
TTITLE1=1988
TTITLE2=陽（ひ）
TTITLE3=白い日は踊る
TTITLE4=カイロ
TTITLE5=テーマ-時をみつめて-
EXTD=YEAR: 1993
EXTT0=
EXTT1=
EXTT2=
EXTT3=
EXTT4=
EXTT5=
PLAYORDER=
